<?xml version="1.0" encoding="UTF-8"?>
<svg id="Layer_2" data-name="Layer 2" xmlns="http://www.w3.org/2000/svg" viewBox="0 0 812.25 222.68">
  <defs>
    <style>
      .cls-1 {
        fill: #fff;
      }

      .cls-2 {
        fill: #aa9e67;
      }

      .cls-3 {
        fill: #afadd6;
      }
    </style>
  </defs>
  <g id="Layer_1-2" data-name="Layer 1">
    <g>
      <g>
        <path class="cls-2" d="m0,194.64v-95.81h27.05c8.34,0,15.71,1.84,22.11,5.53,6.4,3.68,11.35,8.93,14.84,15.73,3.49,6.8,5.25,14.61,5.3,23.43v6.12c0,9.04-1.74,16.96-5.23,23.75-3.49,6.8-8.47,12.02-14.94,15.66-6.47,3.64-14.01,5.51-22.6,5.59H0Zm12.63-85.48v75.15h13.29c9.74,0,17.32-3.03,22.74-9.09,5.42-6.06,8.13-14.69,8.13-25.89v-5.6c0-10.89-2.56-19.35-7.67-25.39-5.11-6.04-12.36-9.1-21.75-9.19h-14.74Z"/>
        <path class="cls-2" d="m116.02,195.96c-9.65,0-17.5-3.17-23.56-9.51-6.05-6.34-9.08-14.82-9.08-25.43v-2.24c0-7.06,1.35-13.37,4.05-18.92,2.7-5.55,6.47-9.89,11.32-13.03,4.85-3.14,10.1-4.7,15.76-4.7,9.26,0,16.45,3.05,21.58,9.15,5.13,6.1,7.7,14.83,7.7,26.19v5.07h-48.24c.17,7.02,2.23,12.69,6.15,17.01,3.93,4.32,8.92,6.48,14.97,6.48,4.3,0,7.94-.88,10.92-2.63,2.98-1.75,5.59-4.08,7.83-6.98l7.44,5.79c-5.97,9.17-14.92,13.75-26.85,13.75Zm-1.51-63.83c-4.91,0-9.04,1.79-12.37,5.36-3.33,3.58-5.4,8.59-6.19,15.04h35.67v-.92c-.35-6.19-2.02-10.98-5-14.38-2.98-3.4-7.02-5.1-12.11-5.1Z"/>
        <path class="cls-2" d="m199.33,175.76c0-3.29-1.24-5.85-3.72-7.67-2.48-1.82-6.8-3.39-12.96-4.7-6.16-1.32-11.06-2.89-14.67-4.74-3.62-1.84-6.3-4.04-8.03-6.58-1.73-2.54-2.6-5.57-2.6-9.08,0-5.83,2.47-10.77,7.4-14.81,4.93-4.04,11.24-6.05,18.92-6.05,8.07,0,14.62,2.08,19.64,6.25,5.02,4.17,7.53,9.5,7.53,15.99h-12.24c0-3.33-1.41-6.21-4.24-8.62-2.83-2.41-6.39-3.62-10.69-3.62s-7.9.97-10.4,2.9c-2.5,1.93-3.75,4.45-3.75,7.57,0,2.94,1.16,5.16,3.49,6.65,2.33,1.49,6.52,2.92,12.6,4.28,6.08,1.36,11,2.98,14.77,4.87,3.77,1.89,6.57,4.16,8.39,6.81,1.82,2.66,2.73,5.89,2.73,9.71,0,6.36-2.54,11.46-7.63,15.3-5.09,3.84-11.69,5.76-19.81,5.76-5.7,0-10.75-1.01-15.14-3.03-4.39-2.02-7.82-4.84-10.3-8.46-2.48-3.62-3.72-7.53-3.72-11.75h12.17c.22,4.08,1.85,7.32,4.9,9.71,3.05,2.39,7.07,3.59,12.08,3.59,4.61,0,8.3-.93,11.09-2.8,2.79-1.86,4.18-4.35,4.18-7.47Z"/>
        <path class="cls-2" d="m227.43,104.56c0-1.97.6-3.64,1.81-5,1.21-1.36,2.99-2.04,5.36-2.04s4.17.68,5.4,2.04c1.23,1.36,1.84,3.03,1.84,5s-.62,3.62-1.84,4.94c-1.23,1.32-3.03,1.97-5.4,1.97s-4.16-.66-5.36-1.97c-1.21-1.32-1.81-2.96-1.81-4.94Zm13.16,90.09h-12.17v-71.2h12.17v71.2Z"/>
        <path class="cls-2" d="m257.17,158.45c0-11.1,2.57-19.93,7.7-26.49,5.13-6.56,11.93-9.84,20.4-9.84s15.46,3.07,20.33,9.21l.59-7.9h11.12v69.49c0,9.21-2.73,16.47-8.19,21.78-5.46,5.31-12.8,7.96-22.01,7.96-5.13,0-10.16-1.1-15.07-3.29-4.91-2.19-8.66-5.2-11.25-9.02l6.32-7.3c5.22,6.45,11.6,9.67,19.15,9.67,5.92,0,10.54-1.67,13.85-5,3.31-3.33,4.97-8.03,4.97-14.08v-6.12c-4.87,5.62-11.52,8.42-19.94,8.42s-15.08-3.35-20.24-10.07c-5.16-6.71-7.73-15.86-7.73-27.44Zm12.24,1.38c0,8.03,1.65,14.34,4.94,18.92,3.29,4.59,7.9,6.88,13.82,6.88,7.68,0,13.32-3.49,16.91-10.46v-32.51c-3.73-6.8-9.32-10.2-16.78-10.2-5.92,0-10.55,2.3-13.88,6.91-3.34,4.61-5,11.43-5,20.47Z"/>
        <path class="cls-2" d="m347.19,123.44l.4,8.95c5.44-6.84,12.54-10.27,21.32-10.27,15.05,0,22.64,8.49,22.77,25.47v47.05h-12.17v-47.12c-.04-5.13-1.22-8.93-3.52-11.38-2.3-2.46-5.89-3.68-10.76-3.68-3.95,0-7.41,1.05-10.4,3.16-2.98,2.11-5.31,4.87-6.98,8.29v50.74h-12.17v-71.2h11.52Z"/>
      </g>
      <g>
        <path class="cls-1" d="m462.22,178.42c0-3.09-.72-5.71-2.17-7.85-1.45-2.14-3.72-4.04-6.83-5.69-3.11-1.65-7.8-3.33-14.09-5.06-6.28-1.73-10.99-3.47-14.14-5.23-3.14-1.76-5.44-3.81-6.91-6.13-1.46-2.33-2.19-5.15-2.19-8.48,0-5.29,2.23-9.57,6.68-12.84,4.45-3.27,10.25-4.91,17.4-4.91,4.65,0,8.83.91,12.54,2.72,3.71,1.81,6.57,4.35,8.6,7.63,2.03,3.27,3.04,6.97,3.04,11.09h-2.69c0-5.42-2-9.9-5.98-13.44-3.99-3.54-9.16-5.31-15.51-5.31s-11.54,1.42-15.48,4.26-5.91,6.41-5.91,10.7,1.71,7.86,5.14,10.52c3.42,2.66,9.07,5.01,16.95,7.05,7.88,2.04,13.65,4.41,17.3,7.11,4.65,3.42,6.98,8.01,6.98,13.76,0,3.66-1.03,6.89-3.09,9.7-2.06,2.81-4.99,4.98-8.78,6.51-3.79,1.53-8.04,2.29-12.77,2.29-5.25,0-9.97-.87-14.16-2.62-4.19-1.75-7.34-4.23-9.45-7.45-2.11-3.22-3.17-7.03-3.17-11.42h2.69c0,5.95,2.23,10.57,6.68,13.86,4.45,3.29,10.25,4.94,17.4,4.94,6.35,0,11.58-1.45,15.71-4.36,4.12-2.91,6.18-6.69,6.18-11.34Z"/>
        <path class="cls-1" d="m473.64,167.8c0-5.15.99-9.78,2.97-13.89,1.98-4.11,4.77-7.31,8.38-9.6,3.61-2.29,7.69-3.44,12.24-3.44s8.58,1.12,12.17,3.34c3.59,2.23,6.39,5.38,8.4,9.47,2.01,4.09,3.03,8.69,3.07,13.81v2.39c0,5.18-.98,9.82-2.94,13.91-1.96,4.09-4.75,7.28-8.35,9.57-3.61,2.29-7.69,3.44-12.24,3.44s-8.64-1.13-12.24-3.39c-3.61-2.26-6.41-5.43-8.4-9.5-2-4.07-3.01-8.65-3.04-13.74v-2.39Zm2.69,2.09c0,4.49.89,8.6,2.67,12.34,1.78,3.74,4.25,6.66,7.43,8.75,3.17,2.09,6.81,3.14,10.89,3.14,6.15,0,11.16-2.31,15.03-6.93,3.87-4.62,5.81-10.57,5.81-17.85v-1.55c0-4.42-.9-8.51-2.69-12.27-1.8-3.76-4.28-6.69-7.45-8.8-3.18-2.11-6.77-3.17-10.8-3.17-6.15,0-11.17,2.34-15.06,7.03-3.89,4.69-5.83,10.59-5.83,17.7v1.6Z"/>
        <path class="cls-1" d="m537.26,195.82h-2.69v-76.59h2.69v76.59Z"/>
        <path class="cls-1" d="m591.11,195.82v-8.73c-1.6,2.99-3.92,5.36-6.98,7.11-3.06,1.75-6.93,2.62-11.62,2.62-5.88,0-10.3-1.72-13.24-5.16-2.94-3.44-4.45-8.45-4.51-15.03v-34.75h2.69v34.85c.07,5.72,1.36,10.05,3.89,12.99,2.52,2.94,6.21,4.41,11.07,4.41,5.15,0,9.34-1.21,12.56-3.64,3.22-2.43,5.27-5.98,6.13-10.67v-37.95h2.74v53.95h-2.74Z"/>
        <path class="cls-1" d="m616.89,127.31v14.56h12.27v2.69h-12.27v38.33c0,3.83.62,6.66,1.87,8.49,1.25,1.83,3.33,2.75,6.26,2.75,1.46,0,3.24-.15,5.34-.45l.45,2.54c-1.1.4-2.98.6-5.63.6-3.92,0-6.73-1.09-8.43-3.27-1.7-2.18-2.56-5.61-2.59-10.31v-38.68h-9.97v-2.69h9.97v-14.56h2.74Z"/>
        <path class="cls-1" d="m642.42,125.02c0-.76.27-1.42.8-1.97.53-.55,1.18-.82,1.95-.82s1.42.27,1.97.82.82,1.21.82,1.97-.27,1.41-.82,1.94c-.55.53-1.2.8-1.97.8s-1.41-.27-1.95-.8c-.53-.53-.8-1.18-.8-1.94Zm4.09,70.8h-2.69v-53.95h2.69v53.95Z"/>
        <path class="cls-1" d="m660.12,167.8c0-5.15.99-9.78,2.97-13.89,1.98-4.11,4.77-7.31,8.38-9.6,3.61-2.29,7.69-3.44,12.24-3.44s8.58,1.12,12.17,3.34c3.59,2.23,6.39,5.38,8.4,9.47,2.01,4.09,3.03,8.69,3.07,13.81v2.39c0,5.18-.98,9.82-2.94,13.91-1.96,4.09-4.75,7.28-8.35,9.57-3.61,2.29-7.69,3.44-12.24,3.44s-8.64-1.13-12.24-3.39c-3.61-2.26-6.41-5.43-8.4-9.5-2-4.07-3.01-8.65-3.04-13.74v-2.39Zm2.69,2.09c0,4.49.89,8.6,2.67,12.34,1.78,3.74,4.25,6.66,7.43,8.75,3.17,2.09,6.81,3.14,10.89,3.14,6.15,0,11.16-2.31,15.03-6.93,3.87-4.62,5.81-10.57,5.81-17.85v-1.55c0-4.42-.9-8.51-2.69-12.27s-4.28-6.69-7.45-8.8c-3.18-2.11-6.77-3.17-10.8-3.17-6.15,0-11.17,2.34-15.06,7.03-3.89,4.69-5.83,10.59-5.83,17.7v1.6Z"/>
        <path class="cls-1" d="m723.1,154.44c1.76-4.19,4.35-7.5,7.78-9.92,3.42-2.43,7.21-3.64,11.37-3.64,5.78,0,10.08,1.64,12.89,4.91,2.81,3.27,4.23,8.22,4.26,14.83v35.2h-2.69v-35.27c-.03-5.78-1.21-10.05-3.54-12.83-2.33-2.77-6.02-4.16-11.07-4.16-4.66,0-8.69,1.65-12.09,4.96-3.41,3.3-5.71,7.56-6.91,12.78v34.52h-2.69v-53.95h2.69v12.56Z"/>
        <path class="cls-1" d="m809.56,182.61c0-6.55-5.58-11-16.75-13.36-6.71-1.43-11.38-3.27-14.01-5.51-2.63-2.24-3.94-5.33-3.94-9.25s1.67-7.21,5.01-9.77c3.34-2.56,7.69-3.84,13.04-3.84,5.82,0,10.49,1.39,14.01,4.16,3.52,2.78,5.29,6.52,5.29,11.24h-2.74c0-3.62-1.53-6.65-4.59-9.07-3.06-2.43-7.05-3.64-11.97-3.64s-8.46,1.03-11.22,3.09c-2.76,2.06-4.14,4.64-4.14,7.73,0,2.43.52,4.33,1.55,5.71,1.03,1.38,2.71,2.63,5.04,3.74s5.72,2.18,10.17,3.22c4.45,1.03,7.98,2.24,10.57,3.64,2.59,1.4,4.47,3.05,5.63,4.96s1.74,4.25,1.74,7.01c0,4.26-1.74,7.68-5.23,10.27-3.49,2.59-8.06,3.89-13.71,3.89-6.05,0-10.93-1.37-14.64-4.11-3.71-2.74-5.56-6.27-5.56-10.6h2.69c.27,3.79,1.94,6.74,5.01,8.85,3.07,2.11,7.24,3.17,12.49,3.17,4.82,0,8.73-1.12,11.74-3.37s4.51-4.96,4.51-8.15Z"/>
      </g>
      <g>
        <path class="cls-3" d="m444.02,33.98c-.43-.22-.87-.44-1.31-.65-2.26-1.07-4.64-1.93-7.11-2.54-.45-.11-.9-.21-1.36-.31-2.53-.53-5.14-.81-7.81-.81-7.46,0-14.42,2.15-20.3,5.87.37.24.75.48,1.12.73,1.93,1.32,3.73,2.81,5.39,4.46.31.3.61.61.91.93,3.89-1.93,8.27-3.01,12.89-3.01,3.05,0,6,.47,8.77,1.35.4.13.8.26,1.2.41,2.21.8,4.29,1.86,6.2,3.16.38.25.75.51,1.12.78,7.18,5.31,11.85,13.84,11.85,23.44,0,16.06-13.07,29.14-29.14,29.14-4.62,0-9-1.09-12.89-3.01-.3.31-.6.63-.91.93-1.66,1.64-3.46,3.13-5.39,4.45-.37.25-.74.5-1.12.73,5.88,3.72,12.85,5.87,20.3,5.87,21.01,0,38.11-17.09,38.11-38.11,0-14.67-8.34-27.44-20.52-33.81Z"/>
        <path class="cls-3" d="m398.31,75.41c-.12-.44-.23-.88-.33-1.32-.45-2.03-.69-4.13-.69-6.3,0-.21,0-.42.01-.63,0-.42.02-.85.05-1.27.48-7.43,3.75-14.1,8.77-18.98-.29-.29-.6-.58-.91-.85-1.64-1.47-3.45-2.75-5.39-3.82-.37-.2-.74-.4-1.12-.58-5.08,5.39-8.61,12.26-9.87,19.88-.08.46-.15.92-.21,1.39-.2,1.59-.31,3.21-.31,4.86,0,.9.03,1.8.09,2.68.04.48.08.97.13,1.44.91,8.47,4.62,16.12,10.17,22.01.38-.18.75-.38,1.12-.58,1.94-1.07,3.75-2.35,5.38-3.82.31-.27.62-.56.91-.85-3.69-3.59-6.44-8.14-7.82-13.26Z"/>
      </g>
      <g>
        <path class="cls-1" d="m377.06,40c-.02-.42-.04-.84-.05-1.27-.01-.21-.01-.42-.01-.63,0-2.16.24-4.27.69-6.3.1-.45.21-.88.33-1.32,3.35-12.38,14.68-21.51,28.12-21.51s24.76,9.14,28.11,21.51c.45.09.91.2,1.36.31,2.47.61,4.85,1.47,7.11,2.54.44.21.88.43,1.31.65-2.07-19.07-18.27-33.98-37.89-33.98s-35.83,14.91-37.89,33.98c-.05.48-.09.96-.13,1.45-.06.88-.09,1.78-.09,2.68,0,1.65.1,3.27.31,4.86.06.47.13.93.21,1.39,1.99,11.99,9.59,22.12,20.01,27.55-.05-.47-.09-.96-.13-1.44-.06-.88-.09-1.78-.09-2.68,0-1.65.1-3.27.31-4.86.06-.47.13-.93.21-1.39-6.71-4.95-11.21-12.72-11.78-21.54Z"/>
        <path class="cls-1" d="m436.4,40.41c-.4-.15-.8-.28-1.2-.41-.57,8.82-5.08,16.59-11.78,21.54-.36.28-.74.53-1.11.78-1.92,1.29-4,2.35-6.2,3.16-.39.15-.8.28-1.2.41-2.77.88-5.71,1.35-8.77,1.35s-6-.47-8.77-1.35c-.02.42-.04.85-.05,1.27-.01.21-.01.42-.01.63,0,2.16.24,4.27.69,6.3.1.45.21.89.33,1.32,2.52.53,5.14.8,7.82.8s5.29-.28,7.81-.8c.45-.1.91-.2,1.36-.31,2.47-.61,4.85-1.47,7.1-2.54.45-.2.88-.42,1.31-.65,10.42-5.44,18.03-15.56,20.01-27.56-.37-.27-.74-.53-1.12-.78-1.92-1.29-4-2.35-6.2-3.16Z"/>
      </g>
      <g>
        <path class="cls-2" d="m377.06,40c2.77-.88,5.71-1.35,8.77-1.35,4.62,0,9,1.09,12.89,3.01.37.18.75.38,1.12.58,1.94,1.07,3.75,2.35,5.39,3.82.31.27.62.56.91.85,5.02,4.89,8.29,11.56,8.77,18.98.4-.13.81-.26,1.2-.41,2.21-.8,4.29-1.87,6.2-3.16.37-.25.75-.51,1.11-.78-1.26-7.62-4.79-14.49-9.87-19.88-.3-.32-.6-.63-.91-.93-1.66-1.64-3.46-3.14-5.39-4.46-.37-.25-.74-.49-1.12-.73-5.88-3.72-12.85-5.87-20.31-5.87-2.68,0-5.29.28-7.81.81-.12.44-.23.87-.33,1.32-.45,2.03-.69,4.14-.69,6.3,0,.21,0,.42.01.63,0,.43.02.85.05,1.27Z"/>
        <path class="cls-2" d="m422.4,72.56c-2.25,1.07-4.63,1.93-7.1,2.54-.45.11-.9.21-1.36.31-1.38,5.11-4.12,9.66-7.81,13.26-.29.29-.6.58-.91.85-1.64,1.47-3.45,2.75-5.38,3.82-.37.2-.74.4-1.12.58-3.89,1.93-8.27,3.01-12.89,3.01-16.06,0-29.14-13.07-29.14-29.14,0-9.6,4.67-18.12,11.85-23.43-.08-.46-.15-.92-.21-1.39-.2-1.59-.31-3.21-.31-4.86,0-.9.03-1.8.09-2.68.04-.48.08-.97.13-1.45-12.18,6.37-20.52,19.14-20.52,33.81,0,21.01,17.09,38.11,38.11,38.11,7.46,0,14.43-2.15,20.31-5.87.37-.23.75-.48,1.12-.73,1.93-1.32,3.73-2.81,5.39-4.45.31-.3.61-.61.91-.93,5.55-5.89,9.25-13.53,10.17-22.01-.43.23-.86.45-1.31.65Z"/>
      </g>
    </g>
  </g>
</svg>